<mxfile host="Electron" modified="2023-09-25T07:26:46.395Z" agent="Mozilla/5.0 (Windows NT 10.0; Win64; x64) AppleWebKit/537.36 (KHTML, like Gecko) draw.io/21.6.8 Chrome/114.0.5735.289 Electron/25.5.0 Safari/537.36" etag="zU10APDQShhDAp7DVdcY" version="21.6.8" type="device">
  <diagram name="Page-1" id="9Ff95I3qvDbhJEju8I2W">
    <mxGraphModel dx="1036" dy="623" grid="1" gridSize="10" guides="1" tooltips="1" connect="1" arrows="1" fold="1" page="1" pageScale="1" pageWidth="850" pageHeight="1100" math="0" shadow="0">
      <root>
        <mxCell id="0" />
        <mxCell id="1" parent="0" />
        <object label="" Coustomer="" id="xks2LNIfAp5VjXhHBOFc-1">
          <mxCell style="shape=umlLifeline;perimeter=lifelinePerimeter;whiteSpace=wrap;html=1;container=1;dropTarget=0;collapsible=0;recursiveResize=0;outlineConnect=0;portConstraint=eastwest;newEdgeStyle={&quot;edgeStyle&quot;:&quot;elbowEdgeStyle&quot;,&quot;elbow&quot;:&quot;vertical&quot;,&quot;curved&quot;:0,&quot;rounded&quot;:0};participant=umlActor;size=30;" parent="1" vertex="1">
            <mxGeometry x="110" y="110" width="20" height="530" as="geometry" />
          </mxCell>
        </object>
        <mxCell id="xks2LNIfAp5VjXhHBOFc-3" value="" style="html=1;points=[];perimeter=orthogonalPerimeter;outlineConnect=0;targetShapes=umlLifeline;portConstraint=eastwest;newEdgeStyle={&quot;edgeStyle&quot;:&quot;elbowEdgeStyle&quot;,&quot;elbow&quot;:&quot;vertical&quot;,&quot;curved&quot;:0,&quot;rounded&quot;:0};" parent="xks2LNIfAp5VjXhHBOFc-1" vertex="1">
          <mxGeometry x="5" y="120" width="10" height="30" as="geometry" />
        </mxCell>
        <mxCell id="xks2LNIfAp5VjXhHBOFc-4" value=":Shoping Cart" style="html=1;whiteSpace=wrap;" parent="1" vertex="1">
          <mxGeometry x="300" y="110" width="110" height="40" as="geometry" />
        </mxCell>
        <mxCell id="xks2LNIfAp5VjXhHBOFc-5" value="service:BanglaBasket" style="html=1;whiteSpace=wrap;" parent="1" vertex="1">
          <mxGeometry x="530" y="110" width="120" height="40" as="geometry" />
        </mxCell>
        <mxCell id="xks2LNIfAp5VjXhHBOFc-6" value="" style="endArrow=none;dashed=1;html=1;strokeWidth=1;rounded=0;entryX=0.5;entryY=1;entryDx=0;entryDy=0;" parent="1" target="xks2LNIfAp5VjXhHBOFc-4" edge="1">
          <mxGeometry width="50" height="50" relative="1" as="geometry">
            <mxPoint x="360" y="640" as="sourcePoint" />
            <mxPoint x="370" y="230" as="targetPoint" />
          </mxGeometry>
        </mxCell>
        <mxCell id="xks2LNIfAp5VjXhHBOFc-15" value="" style="endArrow=none;dashed=1;html=1;strokeWidth=1;rounded=0;entryX=0.5;entryY=1;entryDx=0;entryDy=0;" parent="1" edge="1">
          <mxGeometry width="50" height="50" relative="1" as="geometry">
            <mxPoint x="583" y="630" as="sourcePoint" />
            <mxPoint x="582.5" y="149" as="targetPoint" />
          </mxGeometry>
        </mxCell>
        <mxCell id="xks2LNIfAp5VjXhHBOFc-18" value="if information valid" style="shape=umlFrame;whiteSpace=wrap;html=1;pointerEvents=0;width=130;height=20;" parent="1" vertex="1">
          <mxGeometry x="75" y="174" width="560" height="366" as="geometry" />
        </mxCell>
        <mxCell id="xks2LNIfAp5VjXhHBOFc-31" value="coustomer" style="text;html=1;align=center;verticalAlign=middle;resizable=0;points=[];autosize=1;strokeColor=none;fillColor=none;" parent="1" vertex="1">
          <mxGeometry x="80" y="130" width="80" height="30" as="geometry" />
        </mxCell>
        <mxCell id="xks2LNIfAp5VjXhHBOFc-36" style="edgeStyle=elbowEdgeStyle;rounded=0;orthogonalLoop=1;jettySize=auto;html=1;elbow=vertical;curved=0;" parent="1" edge="1">
          <mxGeometry relative="1" as="geometry">
            <mxPoint x="362" y="258" as="sourcePoint" />
            <mxPoint x="578" y="258" as="targetPoint" />
          </mxGeometry>
        </mxCell>
        <mxCell id="xks2LNIfAp5VjXhHBOFc-32" value="" style="html=1;points=[];perimeter=orthogonalPerimeter;outlineConnect=0;targetShapes=umlLifeline;portConstraint=eastwest;newEdgeStyle={&quot;edgeStyle&quot;:&quot;elbowEdgeStyle&quot;,&quot;elbow&quot;:&quot;vertical&quot;,&quot;curved&quot;:0,&quot;rounded&quot;:0};" parent="1" vertex="1">
          <mxGeometry x="352" y="220" width="10" height="50" as="geometry" />
        </mxCell>
        <mxCell id="xks2LNIfAp5VjXhHBOFc-33" style="edgeStyle=elbowEdgeStyle;rounded=0;orthogonalLoop=1;jettySize=auto;html=1;elbow=vertical;curved=0;" parent="1" source="xks2LNIfAp5VjXhHBOFc-3" target="xks2LNIfAp5VjXhHBOFc-32" edge="1">
          <mxGeometry relative="1" as="geometry" />
        </mxCell>
        <mxCell id="xks2LNIfAp5VjXhHBOFc-34" value="Add product to the shoping cart()" style="text;html=1;align=center;verticalAlign=middle;resizable=0;points=[];autosize=1;strokeColor=none;fillColor=none;" parent="1" vertex="1">
          <mxGeometry x="132" y="215" width="200" height="30" as="geometry" />
        </mxCell>
        <mxCell id="xks2LNIfAp5VjXhHBOFc-35" value="" style="html=1;points=[];perimeter=orthogonalPerimeter;outlineConnect=0;targetShapes=umlLifeline;portConstraint=eastwest;newEdgeStyle={&quot;edgeStyle&quot;:&quot;elbowEdgeStyle&quot;,&quot;elbow&quot;:&quot;vertical&quot;,&quot;curved&quot;:0,&quot;rounded&quot;:0};" parent="1" vertex="1">
          <mxGeometry x="578" y="240" width="10" height="40" as="geometry" />
        </mxCell>
        <mxCell id="xks2LNIfAp5VjXhHBOFc-37" value="save the shoping cart()" style="text;html=1;align=center;verticalAlign=middle;resizable=0;points=[];autosize=1;strokeColor=none;fillColor=none;" parent="1" vertex="1">
          <mxGeometry x="365" y="228" width="150" height="30" as="geometry" />
        </mxCell>
        <mxCell id="xks2LNIfAp5VjXhHBOFc-38" value="" style="html=1;points=[];perimeter=orthogonalPerimeter;outlineConnect=0;targetShapes=umlLifeline;portConstraint=eastwest;newEdgeStyle={&quot;edgeStyle&quot;:&quot;elbowEdgeStyle&quot;,&quot;elbow&quot;:&quot;vertical&quot;,&quot;curved&quot;:0,&quot;rounded&quot;:0};" parent="1" vertex="1">
          <mxGeometry x="115" y="291" width="10" height="30" as="geometry" />
        </mxCell>
        <mxCell id="xks2LNIfAp5VjXhHBOFc-39" style="edgeStyle=elbowEdgeStyle;rounded=0;orthogonalLoop=1;jettySize=auto;html=1;elbow=vertical;curved=0;" parent="1" edge="1">
          <mxGeometry relative="1" as="geometry">
            <mxPoint x="362" y="319" as="sourcePoint" />
            <mxPoint x="578" y="319" as="targetPoint" />
          </mxGeometry>
        </mxCell>
        <mxCell id="xks2LNIfAp5VjXhHBOFc-40" value="" style="html=1;points=[];perimeter=orthogonalPerimeter;outlineConnect=0;targetShapes=umlLifeline;portConstraint=eastwest;newEdgeStyle={&quot;edgeStyle&quot;:&quot;elbowEdgeStyle&quot;,&quot;elbow&quot;:&quot;vertical&quot;,&quot;curved&quot;:0,&quot;rounded&quot;:0};" parent="1" vertex="1">
          <mxGeometry x="352" y="281" width="10" height="50" as="geometry" />
        </mxCell>
        <mxCell id="xks2LNIfAp5VjXhHBOFc-41" style="edgeStyle=elbowEdgeStyle;rounded=0;orthogonalLoop=1;jettySize=auto;html=1;elbow=vertical;curved=0;" parent="1" source="xks2LNIfAp5VjXhHBOFc-38" target="xks2LNIfAp5VjXhHBOFc-40" edge="1">
          <mxGeometry relative="1" as="geometry" />
        </mxCell>
        <mxCell id="xks2LNIfAp5VjXhHBOFc-42" value="remove product from the shoping cart()" style="text;html=1;align=center;verticalAlign=middle;resizable=0;points=[];autosize=1;strokeColor=none;fillColor=none;" parent="1" vertex="1">
          <mxGeometry x="117" y="276" width="230" height="30" as="geometry" />
        </mxCell>
        <mxCell id="xks2LNIfAp5VjXhHBOFc-43" value="" style="html=1;points=[];perimeter=orthogonalPerimeter;outlineConnect=0;targetShapes=umlLifeline;portConstraint=eastwest;newEdgeStyle={&quot;edgeStyle&quot;:&quot;elbowEdgeStyle&quot;,&quot;elbow&quot;:&quot;vertical&quot;,&quot;curved&quot;:0,&quot;rounded&quot;:0};" parent="1" vertex="1">
          <mxGeometry x="578" y="301" width="10" height="40" as="geometry" />
        </mxCell>
        <mxCell id="xks2LNIfAp5VjXhHBOFc-44" value="save the shoping cart()" style="text;html=1;align=center;verticalAlign=middle;resizable=0;points=[];autosize=1;strokeColor=none;fillColor=none;" parent="1" vertex="1">
          <mxGeometry x="365" y="289" width="150" height="30" as="geometry" />
        </mxCell>
        <mxCell id="xks2LNIfAp5VjXhHBOFc-45" value="" style="html=1;points=[];perimeter=orthogonalPerimeter;outlineConnect=0;targetShapes=umlLifeline;portConstraint=eastwest;newEdgeStyle={&quot;edgeStyle&quot;:&quot;elbowEdgeStyle&quot;,&quot;elbow&quot;:&quot;vertical&quot;,&quot;curved&quot;:0,&quot;rounded&quot;:0};" parent="1" vertex="1">
          <mxGeometry x="115" y="357" width="10" height="30" as="geometry" />
        </mxCell>
        <mxCell id="xks2LNIfAp5VjXhHBOFc-46" style="edgeStyle=elbowEdgeStyle;rounded=0;orthogonalLoop=1;jettySize=auto;html=1;elbow=vertical;curved=0;" parent="1" edge="1">
          <mxGeometry relative="1" as="geometry">
            <mxPoint x="362" y="385" as="sourcePoint" />
            <mxPoint x="578" y="385" as="targetPoint" />
          </mxGeometry>
        </mxCell>
        <mxCell id="xks2LNIfAp5VjXhHBOFc-47" value="" style="html=1;points=[];perimeter=orthogonalPerimeter;outlineConnect=0;targetShapes=umlLifeline;portConstraint=eastwest;newEdgeStyle={&quot;edgeStyle&quot;:&quot;elbowEdgeStyle&quot;,&quot;elbow&quot;:&quot;vertical&quot;,&quot;curved&quot;:0,&quot;rounded&quot;:0};" parent="1" vertex="1">
          <mxGeometry x="352" y="347" width="10" height="50" as="geometry" />
        </mxCell>
        <mxCell id="xks2LNIfAp5VjXhHBOFc-48" style="edgeStyle=elbowEdgeStyle;rounded=0;orthogonalLoop=1;jettySize=auto;html=1;elbow=vertical;curved=0;" parent="1" source="xks2LNIfAp5VjXhHBOFc-45" target="xks2LNIfAp5VjXhHBOFc-47" edge="1">
          <mxGeometry relative="1" as="geometry" />
        </mxCell>
        <mxCell id="xks2LNIfAp5VjXhHBOFc-49" value="delete&amp;nbsp; &amp;nbsp;the shoping cart()" style="text;html=1;align=center;verticalAlign=middle;resizable=0;points=[];autosize=1;strokeColor=none;fillColor=none;" parent="1" vertex="1">
          <mxGeometry x="152" y="342" width="160" height="30" as="geometry" />
        </mxCell>
        <mxCell id="xks2LNIfAp5VjXhHBOFc-50" value="" style="html=1;points=[];perimeter=orthogonalPerimeter;outlineConnect=0;targetShapes=umlLifeline;portConstraint=eastwest;newEdgeStyle={&quot;edgeStyle&quot;:&quot;elbowEdgeStyle&quot;,&quot;elbow&quot;:&quot;vertical&quot;,&quot;curved&quot;:0,&quot;rounded&quot;:0};" parent="1" vertex="1">
          <mxGeometry x="578" y="367" width="10" height="40" as="geometry" />
        </mxCell>
        <mxCell id="xks2LNIfAp5VjXhHBOFc-51" value="delete the shoping cart()" style="text;html=1;align=center;verticalAlign=middle;resizable=0;points=[];autosize=1;strokeColor=none;fillColor=none;" parent="1" vertex="1">
          <mxGeometry x="365" y="355" width="150" height="30" as="geometry" />
        </mxCell>
        <mxCell id="xks2LNIfAp5VjXhHBOFc-52" value="" style="html=1;points=[];perimeter=orthogonalPerimeter;outlineConnect=0;targetShapes=umlLifeline;portConstraint=eastwest;newEdgeStyle={&quot;edgeStyle&quot;:&quot;elbowEdgeStyle&quot;,&quot;elbow&quot;:&quot;vertical&quot;,&quot;curved&quot;:0,&quot;rounded&quot;:0};" parent="1" vertex="1">
          <mxGeometry x="115" y="422" width="10" height="30" as="geometry" />
        </mxCell>
        <mxCell id="xks2LNIfAp5VjXhHBOFc-53" style="edgeStyle=elbowEdgeStyle;rounded=0;orthogonalLoop=1;jettySize=auto;html=1;elbow=vertical;curved=0;" parent="1" edge="1">
          <mxGeometry relative="1" as="geometry">
            <mxPoint x="362" y="450" as="sourcePoint" />
            <mxPoint x="578" y="450" as="targetPoint" />
          </mxGeometry>
        </mxCell>
        <mxCell id="xks2LNIfAp5VjXhHBOFc-54" value="" style="html=1;points=[];perimeter=orthogonalPerimeter;outlineConnect=0;targetShapes=umlLifeline;portConstraint=eastwest;newEdgeStyle={&quot;edgeStyle&quot;:&quot;elbowEdgeStyle&quot;,&quot;elbow&quot;:&quot;vertical&quot;,&quot;curved&quot;:0,&quot;rounded&quot;:0};" parent="1" vertex="1">
          <mxGeometry x="352" y="412" width="10" height="50" as="geometry" />
        </mxCell>
        <mxCell id="xks2LNIfAp5VjXhHBOFc-55" style="edgeStyle=elbowEdgeStyle;rounded=0;orthogonalLoop=1;jettySize=auto;html=1;elbow=vertical;curved=0;" parent="1" source="xks2LNIfAp5VjXhHBOFc-52" target="xks2LNIfAp5VjXhHBOFc-54" edge="1">
          <mxGeometry relative="1" as="geometry" />
        </mxCell>
        <mxCell id="xks2LNIfAp5VjXhHBOFc-56" value="increase quantity of the product()" style="text;html=1;align=center;verticalAlign=middle;resizable=0;points=[];autosize=1;strokeColor=none;fillColor=none;" parent="1" vertex="1">
          <mxGeometry x="132" y="407" width="200" height="30" as="geometry" />
        </mxCell>
        <mxCell id="xks2LNIfAp5VjXhHBOFc-57" value="" style="html=1;points=[];perimeter=orthogonalPerimeter;outlineConnect=0;targetShapes=umlLifeline;portConstraint=eastwest;newEdgeStyle={&quot;edgeStyle&quot;:&quot;elbowEdgeStyle&quot;,&quot;elbow&quot;:&quot;vertical&quot;,&quot;curved&quot;:0,&quot;rounded&quot;:0};" parent="1" vertex="1">
          <mxGeometry x="578" y="432" width="10" height="40" as="geometry" />
        </mxCell>
        <mxCell id="xks2LNIfAp5VjXhHBOFc-58" value="save the shoping cart()" style="text;html=1;align=center;verticalAlign=middle;resizable=0;points=[];autosize=1;strokeColor=none;fillColor=none;" parent="1" vertex="1">
          <mxGeometry x="365" y="420" width="150" height="30" as="geometry" />
        </mxCell>
        <mxCell id="xks2LNIfAp5VjXhHBOFc-59" value="" style="html=1;points=[];perimeter=orthogonalPerimeter;outlineConnect=0;targetShapes=umlLifeline;portConstraint=eastwest;newEdgeStyle={&quot;edgeStyle&quot;:&quot;elbowEdgeStyle&quot;,&quot;elbow&quot;:&quot;vertical&quot;,&quot;curved&quot;:0,&quot;rounded&quot;:0};" parent="1" vertex="1">
          <mxGeometry x="117" y="485" width="10" height="30" as="geometry" />
        </mxCell>
        <mxCell id="xks2LNIfAp5VjXhHBOFc-60" style="edgeStyle=elbowEdgeStyle;rounded=0;orthogonalLoop=1;jettySize=auto;html=1;elbow=vertical;curved=0;" parent="1" edge="1">
          <mxGeometry relative="1" as="geometry">
            <mxPoint x="364" y="513" as="sourcePoint" />
            <mxPoint x="580" y="513" as="targetPoint" />
          </mxGeometry>
        </mxCell>
        <mxCell id="xks2LNIfAp5VjXhHBOFc-61" value="" style="html=1;points=[];perimeter=orthogonalPerimeter;outlineConnect=0;targetShapes=umlLifeline;portConstraint=eastwest;newEdgeStyle={&quot;edgeStyle&quot;:&quot;elbowEdgeStyle&quot;,&quot;elbow&quot;:&quot;vertical&quot;,&quot;curved&quot;:0,&quot;rounded&quot;:0};" parent="1" vertex="1">
          <mxGeometry x="354" y="475" width="10" height="50" as="geometry" />
        </mxCell>
        <mxCell id="xks2LNIfAp5VjXhHBOFc-62" style="edgeStyle=elbowEdgeStyle;rounded=0;orthogonalLoop=1;jettySize=auto;html=1;elbow=vertical;curved=0;" parent="1" source="xks2LNIfAp5VjXhHBOFc-59" target="xks2LNIfAp5VjXhHBOFc-61" edge="1">
          <mxGeometry relative="1" as="geometry" />
        </mxCell>
        <mxCell id="xks2LNIfAp5VjXhHBOFc-63" value="decrease quantity of the product()" style="text;html=1;align=center;verticalAlign=middle;resizable=0;points=[];autosize=1;strokeColor=none;fillColor=none;" parent="1" vertex="1">
          <mxGeometry x="134" y="470" width="200" height="30" as="geometry" />
        </mxCell>
        <mxCell id="xks2LNIfAp5VjXhHBOFc-64" value="" style="html=1;points=[];perimeter=orthogonalPerimeter;outlineConnect=0;targetShapes=umlLifeline;portConstraint=eastwest;newEdgeStyle={&quot;edgeStyle&quot;:&quot;elbowEdgeStyle&quot;,&quot;elbow&quot;:&quot;vertical&quot;,&quot;curved&quot;:0,&quot;rounded&quot;:0};" parent="1" vertex="1">
          <mxGeometry x="580" y="495" width="10" height="40" as="geometry" />
        </mxCell>
        <mxCell id="xks2LNIfAp5VjXhHBOFc-65" value="save the shoping cart()" style="text;html=1;align=center;verticalAlign=middle;resizable=0;points=[];autosize=1;strokeColor=none;fillColor=none;" parent="1" vertex="1">
          <mxGeometry x="367" y="483" width="150" height="30" as="geometry" />
        </mxCell>
        <mxCell id="xks2LNIfAp5VjXhHBOFc-67" value="" style="html=1;points=[];perimeter=orthogonalPerimeter;outlineConnect=0;targetShapes=umlLifeline;portConstraint=eastwest;newEdgeStyle={&quot;edgeStyle&quot;:&quot;elbowEdgeStyle&quot;,&quot;elbow&quot;:&quot;vertical&quot;,&quot;curved&quot;:0,&quot;rounded&quot;:0};" parent="1" vertex="1">
          <mxGeometry x="117" y="566" width="10" height="30" as="geometry" />
        </mxCell>
        <mxCell id="xks2LNIfAp5VjXhHBOFc-68" style="edgeStyle=elbowEdgeStyle;rounded=0;orthogonalLoop=1;jettySize=auto;html=1;elbow=vertical;curved=0;" parent="1" edge="1">
          <mxGeometry relative="1" as="geometry">
            <mxPoint x="364" y="594" as="sourcePoint" />
            <mxPoint x="580" y="594" as="targetPoint" />
          </mxGeometry>
        </mxCell>
        <mxCell id="xks2LNIfAp5VjXhHBOFc-69" value="" style="html=1;points=[];perimeter=orthogonalPerimeter;outlineConnect=0;targetShapes=umlLifeline;portConstraint=eastwest;newEdgeStyle={&quot;edgeStyle&quot;:&quot;elbowEdgeStyle&quot;,&quot;elbow&quot;:&quot;vertical&quot;,&quot;curved&quot;:0,&quot;rounded&quot;:0};" parent="1" vertex="1">
          <mxGeometry x="354" y="556" width="10" height="44" as="geometry" />
        </mxCell>
        <mxCell id="xks2LNIfAp5VjXhHBOFc-70" style="edgeStyle=elbowEdgeStyle;rounded=0;orthogonalLoop=1;jettySize=auto;html=1;elbow=vertical;curved=0;" parent="1" source="xks2LNIfAp5VjXhHBOFc-67" target="xks2LNIfAp5VjXhHBOFc-69" edge="1">
          <mxGeometry relative="1" as="geometry" />
        </mxCell>
        <mxCell id="xks2LNIfAp5VjXhHBOFc-71" value="confirm the shoping cart()" style="text;html=1;align=center;verticalAlign=middle;resizable=0;points=[];autosize=1;strokeColor=none;fillColor=none;" parent="1" vertex="1">
          <mxGeometry x="154" y="551" width="160" height="30" as="geometry" />
        </mxCell>
        <mxCell id="xks2LNIfAp5VjXhHBOFc-72" value="" style="html=1;points=[];perimeter=orthogonalPerimeter;outlineConnect=0;targetShapes=umlLifeline;portConstraint=eastwest;newEdgeStyle={&quot;edgeStyle&quot;:&quot;elbowEdgeStyle&quot;,&quot;elbow&quot;:&quot;vertical&quot;,&quot;curved&quot;:0,&quot;rounded&quot;:0};" parent="1" vertex="1">
          <mxGeometry x="580" y="576" width="10" height="40" as="geometry" />
        </mxCell>
        <mxCell id="xks2LNIfAp5VjXhHBOFc-73" value="place into oder()" style="text;html=1;align=center;verticalAlign=middle;resizable=0;points=[];autosize=1;strokeColor=none;fillColor=none;" parent="1" vertex="1">
          <mxGeometry x="387" y="564" width="110" height="30" as="geometry" />
        </mxCell>
        <mxCell id="xks2LNIfAp5VjXhHBOFc-74" value="&lt;font style=&quot;font-size: 16px;&quot;&gt;Figure:Coustomer Shoping Cart Sequamce Diagram&lt;/font&gt;" style="text;html=1;align=center;verticalAlign=middle;resizable=0;points=[];autosize=1;strokeColor=none;fillColor=none;" parent="1" vertex="1">
          <mxGeometry x="167" y="680" width="400" height="30" as="geometry" />
        </mxCell>
        <mxCell id="HuPEfWlzdiCfCYLTKq-8-1" value="" style="swimlane;startSize=0;" parent="1" vertex="1">
          <mxGeometry x="20" y="80" width="690" height="650" as="geometry" />
        </mxCell>
      </root>
    </mxGraphModel>
  </diagram>
</mxfile>
